<svg xmlns="http://www.w3.org/2000/svg" xmlns:xlink="http://www.w3.org/1999/xlink" version="1.1" width="1000" height="1000" viewBox="0 0 1000 1000" xml:space="preserve">
<desc>Created with Fabric.js 3.5.0</desc>
<defs>
</defs>
<rect x="0" y="0" width="100%" height="100%" fill="rgba(255,255,255,0)"/>
<g transform="matrix(1.0344 0.4706 -0.4706 1.0344 500.0073 500.0192)" id="380273">
<g style="" vector-effect="non-scaling-stroke">
		<g transform="matrix(1.5625 0 0 1.5625 -0.0015 -152.8686)" id="Layer_1">
<path style="stroke: none; stroke-width: 1; stroke-dasharray: none; stroke-linecap: butt; stroke-dashoffset: 0; stroke-linejoin: miter; stroke-miterlimit: 4; is-custom-font: none; font-file-url: none; fill: rgb(244,178,176); fill-rule: nonzero; opacity: 1;" transform=" translate(-255.999, -158.1641)" d="M 127.841 92.342 c 6.565 -0.009 13.259 0.256 20.084 0.777 c 55.183 4.212 98.029 24.753 98.413 24.933 l 9.665 4.697 l 9.642 -4.668 c 0.422 -0.209 43.27 -20.749 98.453 -24.963 c 20.758 -1.584 40.343 -0.741 58.738 2.488 l -78.207 59.354 l 21.14 69.027 l -109.758 -40.572 l -109.758 40.572 l 21.132 -69.027 L 89.162 95.596 C 101.522 93.423 114.413 92.342 127.841 92.342 L 127.841 92.342 z" stroke-linecap="round"/>
</g>
		<g transform="matrix(1.5625 0 0 1.5625 -119.25 154.8469)" id="Layer_1">
<path style="stroke: none; stroke-width: 1; stroke-dasharray: none; stroke-linecap: butt; stroke-dashoffset: 0; stroke-linejoin: miter; stroke-miterlimit: 4; is-custom-font: none; font-file-url: none; fill: rgb(179,64,74); fill-rule: nonzero; opacity: 1;" transform=" translate(-179.68, -355.102)" d="M 256 435.021 c -92.655 0 -168.036 -64.796 -168.036 -144.442 c 0 -8.503 6.893 -15.396 15.396 -15.396 s 15.396 6.893 15.396 15.396 c 0 62.667 61.568 113.65 137.244 113.65 c 8.503 0 15.396 6.893 15.396 15.396 C 271.396 428.128 264.503 435.021 256 435.021 z" stroke-linecap="round"/>
</g>
		<g transform="matrix(1.5625 0 0 1.5625 -0.0032 -0.0001)" id="Layer_1">
<path style="stroke: none; stroke-width: 1; stroke-dasharray: none; stroke-linecap: butt; stroke-dashoffset: 0; stroke-linejoin: miter; stroke-miterlimit: 4; is-custom-font: none; font-file-url: none; fill: rgb(179,64,74); fill-rule: nonzero; opacity: 1;" transform=" translate(-255.998, -255.9999)" d="M 459.863 167.695 c -5.056 -6.837 -14.695 -8.278 -21.533 -3.227 c -6.837 5.056 -8.281 14.695 -3.227 21.533 c 22.975 31.073 35.119 67.235 35.119 104.579 c 0 105.113 -96.1 190.629 -214.223 190.629 S 41.777 395.692 41.777 290.579 c 0 -58.373 30.328 -113.605 81.625 -149.671 l 26.117 19.821 l -17.988 58.752 c -1.714 5.596 -0.105 11.679 4.149 15.699 c 4.255 4.02 10.421 5.276 15.91 3.249 l 104.42 -38.6 l 104.42 38.6 c 1.738 0.642 3.544 0.956 5.336 0.956 c 3.867 0 7.667 -1.458 10.575 -4.205 c 4.255 -4.018 5.863 -10.104 4.148 -15.699 l -17.995 -58.752 l 69.647 -52.857 c 4.876 -3.701 7.097 -9.94 5.655 -15.89 c -1.443 -5.949 -6.272 -10.48 -12.301 -11.539 c -19.625 -3.444 -40.689 -4.343 -62.573 -2.674 c -40.48 3.09 -74.238 14.332 -91.531 21.128 V 50.413 l 34.779 -22.005 c 7.185 -4.546 9.325 -14.056 4.779 -21.242 c -4.545 -7.185 -14.055 -9.325 -21.242 -4.779 l -41.944 26.538 c -4.46 2.822 -7.164 7.732 -7.164 13.011 v 56.955 c -17.419 -6.836 -51.154 -18.042 -91.505 -21.123 c -7.137 -0.547 -14.173 -0.824 -20.911 -0.824 h -0.348 c -14.273 0 -28.185 1.173 -41.345 3.489 c -6.029 1.059 -10.856 5.59 -12.297 11.541 c -1.441 5.95 0.781 12.187 5.656 15.887 l 17.951 13.624 c -54.73 41.869 -86.818 103.686 -86.818 169.095 C 10.985 412.671 120.899 512 256 512 s 245.014 -99.329 245.014 -221.42 C 501.014 246.598 486.784 204.106 459.863 167.695 z M 146.753 108.47 c 50.343 3.843 89.934 22.058 92.932 23.465 l 9.588 4.66 c 4.242 2.06 9.193 2.065 13.439 0.011 l 9.642 -4.668 c 0.406 -0.194 41.15 -19.516 92.917 -23.468 c 5.424 -0.414 10.825 -0.654 16.095 -0.716 l -46.043 34.942 c -5.142 3.903 -7.304 10.6 -5.413 16.772 l 12.035 39.296 l -80.594 -29.792 c -3.444 -1.273 -7.231 -1.273 -10.677 0 l -80.598 29.794 l 12.032 -39.299 c 1.891 -6.172 -0.273 -12.868 -5.415 -16.771 l -46.049 -34.947 C 135.853 107.808 141.26 108.05 146.753 108.47 z" stroke-linecap="round"/>
</g>
</g>
</g>
</svg>